<svg xmlns="http://www.w3.org/2000/svg" viewBox="0 0 50 50">
  <path d="M 25 1 C 24.80225 1 24.604594 1.0587813 24.433594 1.1757812 L 1.4335938 16.976562 C 1.1625937 17.162562 1 17.471781 1 17.800781 L 1 21.300781 C 1 21.672781 1.2061562 22.012547 1.5351562 22.185547 C 1.8651563 22.357547 2.2643594 22.335047 2.5683594 22.123047 L 25 6.6152344 L 47.431641 22.121094 C 47.601641 22.239094 47.801 22.300781 48 22.300781 C 48.159 22.300781 48.317844 22.261547 48.464844 22.185547 C 48.793844 22.012547 49 21.672781 49 21.300781 L 49 17.800781 C 49 17.471781 48.838406 17.162563 48.566406 16.976562 L 25.566406 1.1757812 C 25.395406 1.0587813 25.19775 1 25 1 z M 25 9.0507812 L 7 21.490234 L 5 22.869141 L 5 46 C 5 46.55 5.45 47 6 47 L 17 47 C 17.55 47 18 46.55 18 46 L 18 33 C 18 29.14 21.14 26 25 26 C 28.86 26 32 29.14 32 33 L 32 46 C 32 46.55 32.45 47 33 47 L 44 47 C 44.55 47 45 46.55 45 46 L 45 22.880859 L 43 21.5 L 25 9.0507812 z"></path>
</svg>