<?xml version="1.0" encoding="UTF-8"?>
<svg width="35px" height="36px" viewBox="0 0 35 36" version="1.1" xmlns="http://www.w3.org/2000/svg" xmlns:xlink="http://www.w3.org/1999/xlink">
    <!-- Generator: Sketch 50.2 (55047) - http://www.bohemiancoding.com/sketch -->
    <title>Group</title>
    <desc>Created with Sketch.</desc>
    <defs>
        <polygon id="path-1" points="2.55633468 17.6373483 0 8.24016706 6.91610027 0.0284838487 13.6905842 8.10290466 10.6973931 17.1741851"></polygon>
    </defs>
    <g id="Page-1" stroke="none" stroke-width="1" fill="none" fill-rule="evenodd">
        <g id="Group">
            <polygon id="Rectangle-3" fill-opacity="0.5" fill="#000000" points="13.7000122 31.7200012 27 31.7200012 22.3273656 35.4952028 13.7601264 35.4952028"></polygon>
            <polygon id="Path-6" fill="#AE7E39" points="28.668902 29.8665693 33.3468333 16.0324786 22.8933617 12.0265641 17.5445163 27.9814493"></polygon>
            <path d="M0.0104055097,15.1742652 C0.0175722184,14.5649572 0.152315529,14.1746931 0.414635443,14.0034731 C0.676955356,13.8322531 4.55301921,9.16739187 12.042827,0.00888947518 L12.4709689,0.893771264 L0.526546355,15.6080578 L0.0104055097,15.1742652 Z" id="Path-4" fill="#5A2121"></path>
            <path d="M12.3198478,0.440304664 L0.535022366,14.5861816 C0.277204616,15.0205485 0.261113977,15.3633561 0.486750449,15.6146043 C0.712386921,15.8658526 1.33064188,15.7293636 2.34151533,15.2051372 L2.34151533,15.9032711 L2.61936311,16.2345246 L3.67128434,16.2345246 L13.0875126,1.9130633 L12.3198478,0.440304664 Z" id="Path-2" fill="#8D662E"></path>
            <polygon id="Path" fill="#EBAA4D" points="6.47643059 28.1340864 2.63273178 14.0045068 13.0317639 1.6574392 23.217862 13.7981193 18.7173068 27.4376752"></polygon>
            <polygon id="Path" fill="#AE7E39" points="8.28981668 24.4115418 5.52694505 14.2551231 13.0018259 5.37998372 20.3236488 14.1067707 17.0886252 23.9109577"></polygon>
            <g id="books" transform="translate(6.280242, 6.209677)">
                <mask id="mask-2" fill="white">
                    <use xlink:href="#path-1"></use>
                </mask>
                <use id="Mask" fill="#2D1500" xlink:href="#path-1"></use>
                <g mask="url(#mask-2)" id="Group-2">
                    <g transform="translate(0.635081, 5.786290)">
                        <g>
                            <g id="Group" transform="translate(0.000000, 1.777778)">
                                <polygon id="Rectangle-2" fill="#417505" points="2.56065667 0.0185403546 10.8557386 1.39003687 6.70819672 9.88646959 2.56065667 12.1166224"></polygon>
                                <rect id="Rectangle" fill="#599614" x="0" y="0" width="2.59672131" height="12.16"></rect>
                            </g>
                            <g id="Group" transform="translate(3.245902, 3.271111)">
                                <polygon id="Rectangle-2" fill="#5E1362" points="2.66885246 0 11.4688525 1.2334089 7.06885147 8.87438764 2.66885246 10.88"></polygon>
                                <rect id="Rectangle" fill="#8E1496" x="0" y="0" width="2.66885246" height="10.9511111"></rect>
                            </g>
                            <g id="Group" transform="translate(6.636066, 0.000000)">
                                <polygon id="Rectangle-2" fill="#052056" points="2.74098361 0 11.5409836 1.57199173 7.14098262 11.3104941 2.74098361 13.8666667"></polygon>
                                <rect id="Rectangle" fill="#2A5990" x="0" y="0" width="2.74098361" height="13.9377778"></rect>
                            </g>
                            <g id="Group" transform="translate(15.508197, 8.463750) rotate(6.000000) translate(-15.508197, -8.463750) translate(9.737705, 1.494861)">
                                <polygon id="Rectangle-2" fill="#6A420F" points="2.74098361 0 11.5409836 1.57199173 7.14098262 11.3104941 2.74098361 13.8666667"></polygon>
                                <rect id="Rectangle" fill="#C1802E" x="0" y="0" width="2.74098361" height="13.9377778"></rect>
                            </g>
                        </g>
                    </g>
                </g>
                <rect id="Rectangle" fill-opacity="0.6" fill="#FFFFFF" mask="url(#mask-2)" transform="translate(5.947817, 5.991368) rotate(-22.000000) translate(-5.947817, -5.991368) " x="-1.81427986" y="4.89761845" width="15.5241935" height="2.1875"></rect>
                <rect id="Rectangle" fill-opacity="0.6" fill="#FFFFFF" mask="url(#mask-2)" transform="translate(7.382374, 9.528909) rotate(-22.000000) translate(-7.382374, -9.528909) " x="-0.379722896" y="9.15513719" width="15.5241935" height="1"></rect>
                <rect id="Rectangle" fill-opacity="0.6" fill="#FFFFFF" mask="url(#mask-2)" transform="translate(7.291893, 16.008590) rotate(-22.000000) translate(-7.291893, -16.008590) " x="-0.470203708" y="15.3932828" width="15.5241935" height="1.23061396"></rect>
            </g>
            <polygon id="Path" fill-opacity="0.5" fill="#4A90E2" points="8.83657661 23.8470257 6.28024194 14.4498445 13.1963422 6.23816127 19.9708262 14.3125821 16.977635 23.3838625"></polygon>
            <path d="M12.1109796,0.715499386 C15.6859709,5.15790491 19.4202396,9.56572935 23.3137857,13.9389727 C24.0862971,14.587422 24.616691,14.8953953 24.9049673,14.8628924 C25.1932435,14.8303895 25.2580885,14.6187304 25.0995021,14.2279151 C26.0026911,14.9981066 26.6188328,15.3538234 26.9479272,15.2950656 C27.2770215,15.2363078 27.3221695,15.04987 27.0833711,14.7357522 C27.9451448,15.5111579 28.5372597,15.8680807 28.8597156,15.8065205 C29.1821716,15.7449603 29.222358,15.5469111 28.9802748,15.2123728 C29.7935355,15.9407355 30.3837897,16.273597 30.7510376,16.2109572 C31.1182855,16.1483174 31.1840952,15.955781 30.9484666,15.633348 C31.7872702,16.4119926 32.3920186,16.7710056 32.762712,16.7103872 C33.1334055,16.6497688 33.192416,16.4519722 32.9397435,16.1169975 C33.7722992,16.8992483 34.368698,17.2537937 34.7289399,17.1806335 C34.8694028,16.5341826 34.9396343,16.2109572 34.9396343,16.2109572 L23.8553201,3.41858895 L12.1109796,0.0179856823 C11.9517022,0.285071327 11.9517022,0.517575895 12.1109796,0.715499386 Z" id="Path-3" fill="#5A2121"></path>
            <path d="M12.1109796,0.00985422442 L23.3137857,13.2333276 C24.0862971,13.8817769 24.616691,14.1897501 24.9049673,14.1572472 C25.1932435,14.1247444 25.2580885,13.9130853 25.0995021,13.52227 C26.0026911,14.2924614 26.6188328,14.6481783 26.9479272,14.5894204 C27.2770215,14.5306626 27.3221695,14.3442248 27.0833711,14.0301071 C27.9451448,14.8055128 28.5372597,15.1624356 28.8597156,15.1008754 C29.1821716,15.0393152 29.222358,14.8412659 28.9802748,14.5067276 C29.7935355,15.2350904 30.3837897,15.5679518 30.7510376,15.505312 C31.1182855,15.4426722 31.1840952,15.2501359 30.9484666,14.9277029 C31.7872702,15.7063474 32.3920186,16.0653604 32.762712,16.004742 C33.1334055,15.9441236 33.192416,15.7463271 32.9397435,15.4113523 C33.7722992,16.1936032 34.368698,16.5481485 34.7289399,16.4749884 C35.0891819,16.4018282 34.9629031,15.9969666 34.3501036,15.2604035 L23.8553201,2.71294378 L12.1109796,0.00985422442 Z" id="Path-3" fill="#883B3B"></path>
            <polygon id="Path-5" fill="#540000" points="6.51371125 28.1234052 18.7572061 27.4342986 28.6100523 29.8493416 16.8231595 30.4291559"></polygon>
            <polygon id="Rectangle-2" fill="#2F0000" points="18.4560173 28.6491935 21.0159597 29.3256206 21.0159597 34.4768303 18.4560173 33.8004032"></polygon>
            <rect id="Rectangle-2" fill="#540000" x="14.8891129" y="28.6491935" width="3.59879032" height="5.15120968"></rect>
            <rect id="Rectangle-3" fill="#2F0000" x="14" y="33" width="8" height="2"></rect>
        </g>
    </g>
</svg>